<svg aria-hidden="true" style="position:absolute;width:0;height:0" xmlns="http://www.w3.org/2000/svg" overflow="hidden"><defs>
<symbol id="icon-mail" viewBox="0 0 43 32"><path  d="M38.667 0H4C1.794 0 0 1.794 0 4v24c0 2.206 1.794 4 4 4h34.667c2.206 0 4-1.794 4-4V4c0-2.206-1.794-4-4-4zm0 2.667c.181 0 .353.038.511.103L21.334 18.236 3.49 2.77a1.32 1.32 0 01.511-.103h34.667zm0 26.666H4A1.334 1.334 0 012.667 28V5.587L20.46 21.008a1.335 1.335 0 001.748 0L40.001 5.587V28c0 .736-.598 1.333-1.333 1.333z"/></symbol>
<symbol id="icon-tel" viewBox="0 0 20 32"><path  d="M17.002 0H2.999A3.005 3.005 0 00-.002 3.001v26.006a3.005 3.005 0 003.001 3.001h14.003a3.005 3.005 0 003.001-3.001V3.001A3.005 3.005 0 0017.002 0zM2.998 2.001h14.003a1 1 0 011 1v21.005H1.997V3.001a1 1 0 011-1zm14.004 28.006H2.999a1 1 0 01-1-1v-3.001h16.004v3.001a1 1 0 01-1 1z"/></symbol>
<symbol id="icon-instagram" viewBox="0 0 32 32"><path  d="M31.969 9.408c-.075-1.7-.35-2.869-.744-3.882a7.806 7.806 0 00-1.851-2.838A7.867 7.867 0 0026.542.844C25.523.45 24.36.175 22.66.1 20.947.019 20.403 0 16.059 0s-4.888.019-6.595.094c-1.7.075-2.869.35-3.882.744a7.803 7.803 0 00-2.838 1.85A7.867 7.867 0 00.9 5.52C.506 6.539.231 7.702.156 9.402c-.081 1.713-.1 2.257-.1 6.601s.019 4.888.094 6.595c.075 1.7.35 2.869.744 3.882a7.895 7.895 0 001.85 2.838 7.867 7.867 0 002.832 1.844c1.019.394 2.182.669 3.882.744 1.706.075 2.25.094 6.595.094s4.888-.019 6.595-.094c1.7-.075 2.869-.35 3.882-.744a8.184 8.184 0 004.682-4.682c.394-1.019.669-2.182.744-3.882.075-1.707.094-2.251.094-6.595s-.006-4.888-.081-6.595zm-2.882 13.065c-.069 1.563-.331 2.407-.55 2.969a5.31 5.31 0 01-3.038 3.038c-.563.219-1.413.481-2.969.55-1.688.075-2.194.094-6.464.094s-4.782-.019-6.464-.094c-1.563-.069-2.407-.331-2.969-.55a4.926 4.926 0 01-1.838-1.194 4.974 4.974 0 01-1.194-1.838c-.219-.563-.481-1.413-.55-2.969-.075-1.688-.094-2.194-.094-6.464s.019-4.782.094-6.464c.069-1.563.331-2.407.55-2.969a4.868 4.868 0 011.2-1.838A4.974 4.974 0 016.639 3.55c.563-.219 1.413-.481 2.969-.55 1.688-.075 2.194-.094 6.464-.094 4.276 0 4.782.019 6.464.094 1.563.069 2.407.331 2.969.55a4.914 4.914 0 011.838 1.194 4.974 4.974 0 011.194 1.838c.219.563.481 1.413.55 2.969.075 1.688.094 2.194.094 6.464s-.019 4.77-.094 6.458z"/><path  d="M16.059 7.783c-4.538 0-8.22 3.682-8.22 8.22s3.682 8.22 8.22 8.22c4.539 0 8.22-3.682 8.22-8.22s-3.682-8.22-8.22-8.22zm0 13.552a5.333 5.333 0 010-10.664 5.333 5.333 0 010 10.664zM26.524 7.458a1.919 1.919 0 11-3.838 0 1.919 1.919 0 013.838 0z"/></symbol>
<symbol id="icon-twitter" viewBox="0 0 32 32"><path  d="M32 6.078c-1.19.522-2.458.868-3.78 1.036a6.523 6.523 0 002.886-3.626 13.11 13.11 0 01-4.16 1.588A6.574 6.574 0 0022.154 3c-3.632 0-6.556 2.948-6.556 6.562 0 .52.044 1.02.152 1.496-5.454-.266-10.28-2.88-13.522-6.862a6.605 6.605 0 00-.898 3.316 6.57 6.57 0 002.914 5.452 6.479 6.479 0 01-2.964-.808v.072c0 3.188 2.274 5.836 5.256 6.446a6.548 6.548 0 01-1.72.216 5.8 5.8 0 01-1.242-.112c.85 2.598 3.262 4.508 6.13 4.57a13.182 13.182 0 01-8.134 2.798c-.538 0-1.054-.024-1.57-.09A18.469 18.469 0 0010.064 29c12.072 0 18.672-10 18.672-18.668 0-.29-.01-.57-.024-.848A13.087 13.087 0 0032 6.078z"/></symbol></defs>
<symbol id="icon-facebook" viewBox="0 0 32 32"><path  d="M21.329 5.313h2.921V.225C23.746.156 22.013 0 19.994 0c-4.212 0-7.097 2.649-7.097 7.519V12H8.249v5.688h4.648V32h5.699V17.689h4.46l.708-5.688h-5.169V8.082c.001-1.644.444-2.769 2.735-2.769z"/></symbol>
<symbol id="icon-linkedin" viewBox="0 0 32 32"><path  d="M31.992 32v-.001H32V20.263c0-5.741-1.236-10.164-7.948-10.164-3.227 0-5.392 1.771-6.276 3.449h-.093v-2.913h-6.364v21.364h6.627V21.42c0-2.785.528-5.479 3.977-5.479 3.399 0 3.449 3.179 3.449 5.657v10.401h6.62zM.528 10.636h6.635V32H.528V10.636zM3.843 0C1.722 0 0 1.721 0 3.843s1.721 3.879 3.843 3.879c2.121 0 3.843-1.757 3.843-3.879A3.846 3.846 0 003.843 0z"/></symbol>
<symbol id="icon-antenna" viewBox="0 0 32 32"><path fill="var(--color4, #212121)" d="M30.773 22.098l-8.443-8.505.937-4.615c.242.094.499.144.758.146h.006a2.159 2.159 0 10-2.008-1.435l-4.96.605L8.972.161a.534.534 0 00-.377-.16.532.532 0 00-.373.155L6.709 1.66a.534.534 0 000 .754l.814.826a14.943 14.943 0 002.519 17.663.513.513 0 00.146.098c-.034.18-.051.364-.052.547v6.187h-6.4a2.67 2.67 0 00-2.667 2.667v1.067c0 .295.239.533.533.533h24.533a.533.533 0 00.533-.533v-1.067a2.67 2.67 0 00-2.667-2.667h-6.4v-2.742a15.09 15.09 0 003.049.32 14.854 14.854 0 007.04-1.783l.818.823a.534.534 0 00.377.16.532.532 0 00.373-.155l1.513-1.504a.534.534 0 000-.754zM23.28 6.233a1.066 1.066 0 11.752 1.822h-.003a1.067 1.067 0 01-.747-1.823h-.002zm-1.256 3.505l-.598 2.946-1.175-1.182 1.774-1.763zm-.605-.902l-1.92 1.909-1.485-1.493 3.405-.415zM24.004 28.8a1.6 1.6 0 011.6 1.6v.533H2.137V30.4a1.6 1.6 0 011.6-1.6h20.267zm-7.467-2.133v1.067h-5.333v-1.067h5.333zM11.204 25.6v-4.053c0-1.294 1.196-2.347 2.667-2.347s2.667 1.053 2.667 2.347V25.6h-5.333zm6.4-1.696v-2.357c0-1.882-1.675-3.413-3.733-3.413a3.8 3.8 0 00-3.281 1.786A13.87 13.87 0 018.311 4.033l18.602 18.708a13.818 13.818 0 01-9.309 1.163zm11.289-.684L7.836 2.039l.755-.752 7.935 7.98c.004 0 .006.007.01.01l13.115 13.191-.757.752z"/><path fill="var(--color2, #2196f3)" d="M13.876 20.267h-.005a1.6 1.6 0 10-.004 3.2h.005a1.6 1.6 0 10.004-3.2zm.373 1.978a.534.534 0 01-.752-.756.534.534 0 01.373-.155.532.532 0 01.373.911h.005z"/></symbol>
<symbol id="icon-clock" viewBox="0 0 32 32"><path fill="var(--color4, #212121)" d="M31.297 15.301C31.295 6.849 24.442-.002 15.989 0S.686 6.855.688 15.308a15.304 15.304 0 0010.649 14.576.662.662 0 00.529-.065.637.637 0 00.283-.356l3.865-12.25a1.912 1.912 0 10-.84-3.635l-5.106-5.107a.637.637 0 00-.902.902l5.103 5.109a1.876 1.876 0 00.536 2.309l-3.683 11.673C3.844 25.783.118 17.71 2.799 10.432S13.553-.572 20.831 2.109s11.004 10.754 8.323 18.032a14.042 14.042 0 01-7.462 7.973l-.398-1.874a.638.638 0 00-1.048-.344l-3.837 3.426a.637.637 0 00.231 1.084l4.899 1.563a.638.638 0 00.819-.74l-.391-1.839a15.255 15.255 0 009.329-14.089zm-15.305-.637a.638.638 0 110 1.277.638.638 0 010-1.277zm2.101 14.864l2.184-1.948.603 2.84-2.787-.892z"/><path fill="var(--color2, #2196f3)" d="M15.354 3.185V4.46a.638.638 0 101.276 0V3.185a.638.638 0 00-1.276 0zM3.876 14.664a.638.638 0 000 1.276h1.275a.638.638 0 100-1.276H3.876zM28.108 15.939a.638.638 0 100-1.276h-1.275a.638.638 0 000 1.276h1.275z"/></symbol>
<symbol id="icon-diagram" viewBox="0 0 32 32"><path fill="var(--color2, #2196f3)" d="M14.926 14.965h1.066v4.798h-1.066v-4.797zM19.19 17.097h1.066v2.665H19.19v-2.665zM10.661 18.696h1.066v1.066h-1.066v-1.066zM7.463 18.163h1.066v1.599H7.463v-1.599z"/><path fill="var(--color4, #212121)" d="M1.599 28.291h25.587a1.6 1.6 0 001.599-1.599V24.56a1.6 1.6 0 00-1.599-1.599h-.533V9.668L29.681 6.8a1.608 1.608 0 10-.746-.763L26.654 8.2V6.97a1.6 1.6 0 00-1.599-1.599H3.733A1.6 1.6 0 002.134 6.97v15.992h-.533a1.6 1.6 0 00-1.599 1.599v2.132a1.6 1.6 0 001.599 1.599zM30.384 4.837a.533.533 0 110 1.067.533.533 0 010-1.067zM3.198 6.969c0-.294.239-.533.533-.533h21.322c.294 0 .533.239.533.533v2.239l-1.066 1.013V8.035a.533.533 0 00-.533-.533H4.797a.533.533 0 00-.533.533v13.326c0 .294.239.533.533.533h19.19a.533.533 0 00.533-.533v-9.674l1.066-1.01v12.284H3.198V6.969zm4.798 6.93a1.598 1.598 0 101.107 2.749l1.853.93a.532.532 0 00.636-.123l3.939-4.431 3.872 2.901a.533.533 0 00.686-.039l3.365-3.188v8.131H5.33V8.569h18.124v2.66l-3.771 3.572-3.904-2.927a.533.533 0 00-.718.072l-3.993 4.493-1.493-.746c.011-.064.018-.129.02-.193a1.6 1.6 0 00-1.599-1.599zm.533 1.599a.533.533 0 11-1.067 0 .533.533 0 011.067 0zm3.198 8.529h5.331v.533a.533.533 0 01-.533.533h-4.264a.533.533 0 01-.533-.533v-.533zm-10.661.533c0-.294.239-.533.533-.533h9.062v.533a1.6 1.6 0 001.599 1.599h4.264a1.6 1.6 0 001.599-1.599v-.533h9.062c.294 0 .533.239.533.533v2.132a.533.533 0 01-.533.533H1.598a.533.533 0 01-.533-.533V24.56z"/></symbol>
<symbol id="icon-astronaut" viewBox="0 0 32 32"><path fill="var(--color2, #2196f3)" d="M31.974 4.524a.534.534 0 00-.43-.363l-1.91-.278-.855-1.731c-.179-.365-.777-.365-.956 0l-.855 1.731-1.91.278a.535.535 0 00-.296.91l1.383 1.348-.326 1.903c-.034.2.048.402.212.522a.53.53 0 00.562.04l1.709-.899 1.709.899a.536.536 0 00.775-.563l-.326-1.903 1.383-1.348a.536.536 0 00.135-.547zm-2.463 1.327a.534.534 0 00-.153.472l.191 1.114-1-.526a.533.533 0 00-.498 0l-1.001.526.191-1.114a.534.534 0 00-.153-.472l-.81-.789 1.119-.163a.532.532 0 00.402-.292l.5-1.013.5 1.013a.535.535 0 00.402.292l1.119.163-.809.789zM26.134 20.522h-1.067v1.067h1.067v-1.067zM26.134 22.656h-1.067v1.067h1.067v-1.067zM27.2 21.589h-1.067v1.067H27.2v-1.067zM25.067 21.589H24v1.067h1.067v-1.067zM22.4 26.389h-1.067v1.067H22.4v-1.067zM22.4 28.522h-1.067v1.067H22.4v-1.067zM23.467 27.456H22.4v1.067h1.067v-1.067zM21.333 27.456h-1.067v1.067h1.067v-1.067zM16 24.256h-1.067v1.067H16v-1.067zM16 26.389h-1.067v1.067H16v-1.067zM17.067 25.322H16v1.067h1.067v-1.067zM14.933 25.322h-1.067v1.067h1.067v-1.067zM5.867 6.122H4.8v1.067h1.067V6.122zM5.867 8.255H4.8v1.067h1.067V8.255z"/><path fill="var(--color2, #2196f3)" d="M6.933 7.189H5.866v1.067h1.067V7.189zM4.8 7.189H3.733v1.067H4.8V7.189z"/><path fill="var(--color4, #212121)" d="M24.715 14.159a1.775 1.775 0 00-1.188-.705 1.778 1.778 0 00-1.34.352l-1.252.96-1.898 1.417-1.358-.541c2.421-1.086 4.114-3.508 4.114-6.32 0-3.823-3.123-6.933-6.961-6.933s-6.961 3.11-6.961 6.933a6.86 6.86 0 001.12 3.758l-2.764-.024h-.005c-.009 0-.015.004-.023.005a.515.515 0 00-.155.031l-.038.013c-.006.003-.013.003-.019.006l-3.233 1.596-.001.001-1.893.911a.397.397 0 00-.063.035 1.779 1.779 0 00-.598 2.295c.22.429.595.745 1.056.889a1.776 1.776 0 001.378-.128l1.388-.738 2.264-1.169 1.357-.008L2.2 22.211l-.002.001-1.339 1.333c-.316.315-.49.732-.49 1.178s.174.863.49 1.179c.325.323.752.485 1.179.485s.854-.162 1.18-.485l1.314-1.309 1.741-1.3.901.897-1.762 1.754-.002.001-1.339 1.333c-.316.315-.49.732-.49 1.178s.174.863.49 1.179c.325.323.753.485 1.18.485s.855-.162 1.18-.485l3.482-3.467.001-.002 1.01-1-.004-.004c.006-.006.015-.009.022-.015l5.166-5.658 3.471.494a.52.52 0 00.262-.033c.018-.006.033-.015.05-.023.019-.01.039-.015.058-.027l3.213-2.133c.012-.008.018-.021.029-.029.013-.01.029-.014.041-.026l1.271-1.191c.662-.62.753-1.635.212-2.362zM2.13 17.77a.714.714 0 01-.558.052.717.717 0 01-.213-1.26l1.314-.632.449 1.312-.992.528zm3.498-1.828l-1.548.8-.439-1.283 2.027-1.001-.04 1.484zm15.099-6.62a5.79 5.79 0 01-.599 2.559l-4.181-1.899a1.863 1.863 0 00-.788-1.388l1.464-4.86c2.378.756 4.105 2.974 4.105 5.588zm-11.789 0c0-3.235 2.644-5.867 5.894-5.867.253 0 .5.021.745.052l-1.432 4.754c-.019-.001-.037-.006-.057-.006-1.033 0-1.873.837-1.873 1.867s.84 1.867 1.873 1.867c.694 0 1.294-.383 1.618-.945l3.862 1.755a5.894 5.894 0 01-4.737 2.39c-3.25 0-5.894-2.632-5.894-5.867zm5.956.8c0 .441-.362.8-.806.8s-.806-.359-.806-.8c0-.441.362-.8.806-.8s.806.359.806.8zM2.465 25.146a.608.608 0 01-.854.001.592.592 0 010-.844l.962-.958.851.848-.959.955zm3.214 3.734a.608.608 0 01-.855.001.592.592 0 010-.844l.963-.959.852.848-.96.955zm3.481-3.469l-.002.001-1.765 1.76-.852-.848 1.763-1.755.002-.001c.04-.04.065-.088.09-.135.007-.014.02-.026.026-.04.017-.041.019-.085.026-.129.003-.025.014-.047.014-.073 0-.036-.013-.07-.02-.106-.006-.032-.006-.065-.019-.095a.55.55 0 00-.091-.138c-.01-.012-.014-.027-.025-.038h-.001l-.001-.002-1.607-1.6c-.017-.017-.039-.024-.058-.038a.507.507 0 00-.087-.058.515.515 0 00-.093-.033.507.507 0 00-.103-.02.5.5 0 00-.095.005.53.53 0 00-.104.02.477.477 0 00-.094.045c-.02.011-.042.015-.061.029L4.23 23.486l-.901-.897 2.399-2.386 4.361 4.289-.928.919zm6.819-7.017c-.015-.002-.03.004-.045.003a.556.556 0 00-.3.075.492.492 0 00-.083.061c-.013.011-.028.017-.04.029l-4.698 5.146-4.328-4.257 2.833-2.818a.534.534 0 00-.379-.911v-.001l-2.219.013.028-1.607 3.104.027a6.947 6.947 0 004.981 2.101c.437 0 .864-.045 1.279-.123.04.032.079.065.13.085l2.41.96.331 1.644-3.003-.427zm4.041.178l-.313-1.558 1.446-1.08.947 1.257-2.08 1.381zm3.754-2.831l-.838.785-.931-1.236.831-.637a.735.735 0 01.543-.143.718.718 0 01.48.284.713.713 0 01-.085.947z"/><path fill="var(--color4, #212121)" d="M13.602 18.544l-2.143-2.133a.534.534 0 00-.753 0l-2.142 2.133a.537.537 0 000 .756l2.142 2.133a.536.536 0 00.753 0l2.143-2.133a.535.535 0 000-.756zm-2.519 1.759l-1.387-1.381 1.387-1.381 1.387 1.381-1.387 1.381zM17.164 5.071l-.258 1.036c.071.018 1.738.452 1.738 2.149h1.067c0-2.017-1.666-2.965-2.547-3.185zM19.711 9.322h-1.067v1.067h1.067V9.322z"/></symbol>
<symbol id="icon-group-1" viewBox="0 0 32 32"><path  d="M6.128 0l4.771 4.517-8.856-.005v21.915h23.149v-8.379l4.766 4.512V.001H6.128zm18.854 17.517L11.454 4.71h13.528v12.807zm-4.2 5.704H5.706V8.482h1.066v13.741h14.01v.998zM9.266 29.344l-.557 1.147-.557-1.147h-.467l.813 1.529v.891h.422v-.891l.811-1.529h-.465zm.699 2.42l.196-.563h.938l.198.563h.439l-.916-2.42h-.377l-.914 2.42h.437zm.665-1.906l.351 1.004h-.701l.351-1.004zm2.218.946a.55.55 0 00-.091.307c0 .204.072.37.214.497.144.126.336.189.575.189s.445-.065.618-.194l.136.161h.469l-.356-.421c.14-.191.209-.435.209-.733h-.351a.973.973 0 01-.101.444l-.467-.552.165-.12a.905.905 0 00.251-.253.532.532 0 00.076-.279.496.496 0 00-.17-.384.61.61 0 00-.432-.156.641.641 0 00-.465.166.591.591 0 00-.173.449c0 .078.018.158.055.241.038.083.104.184.198.303-.18.129-.3.24-.361.334zm1.092.535a.616.616 0 01-.382.136c-.121 0-.217-.035-.289-.105s-.108-.161-.108-.273c0-.13.067-.245.2-.346l.052-.037.529.623zm-.434-1.072c-.114-.141-.171-.258-.171-.351 0-.081.023-.148.07-.201s.109-.08.188-.08c.073 0 .133.023.181.068a.21.21 0 01.072.161.298.298 0 01-.103.234l-.052.042-.184.126zm3.939 1.314c.166-.145.262-.347.286-.605h-.419c-.022.173-.075.296-.158.371s-.207.111-.372.111a.468.468 0 01-.412-.206c-.093-.137-.14-.337-.14-.598v-.214c.002-.258.052-.454.15-.587a.493.493 0 01.422-.201c.157 0 .276.039.357.116.082.076.133.202.153.376h.419c-.027-.265-.121-.47-.284-.615s-.378-.218-.645-.218a.978.978 0 00-.525.141c-.151.094-.267.228-.347.402s-.121.375-.121.603v.226c.003.223.045.418.125.587s.193.299.339.391a.949.949 0 00.51.136c.276 0 .497-.072.663-.216zm2.472-.339c.082-.18.123-.388.123-.625v-.135a1.462 1.462 0 00-.126-.62.924.924 0 00-.878-.552.957.957 0 00-.525.145.939.939 0 00-.354.414 1.484 1.484 0 00-.125.625v.136c.001.232.043.436.126.613a.962.962 0 00.356.411.98.98 0 00.525.143.97.97 0 00.525-.143.932.932 0 00.352-.412zm-.45-1.368c.102.143.153.349.153.617v.126c0 .273-.05.48-.151.622a.493.493 0 01-.429.213.503.503 0 01-.432-.218c-.103-.145-.155-.351-.155-.617v-.14c.002-.26.054-.462.156-.603a.496.496 0 01.427-.214c.186 0 .33.072.43.214z"/></symbol>
<symbol id="icon-group-2" viewBox="0 0 32 32"><path  d="M14.224 1.806h-.084a9.985 9.985 0 00-.388-.014h-.28c-.244 0-.494.006-.741.019a.523.523 0 00-.056 0 17.4 17.4 0 00-6.471 1.651l-.266.128v13.625l.623-.211a23.32 23.32 0 011.731-.513 21.155 21.155 0 014.982-.662v1.79a15.56 15.56 0 00-.655.019h-.051a19.948 19.948 0 00-3.833.588c-1.59.398-3.124.996-4.566 1.779V2.53A18.3 18.3 0 018.959.582 18.343 18.343 0 0113.474 0h.263c.314.008.621.022.909.044.759.053 1.511.173 2.249.358v1.762a13.947 13.947 0 00-2.179-.329l-.045-.004c-.152-.013-.304-.026-.446-.026zm3.101 1.801c.391.03.796.044 1.205.044a19.352 19.352 0 004.747-.609c1.589-.4 3.123-.998 4.564-1.781v17.163a18.313 18.313 0 01-4.792 1.948 18.486 18.486 0 01-4.515.581 13.778 13.778 0 01-3.425-.404V3.274c.265.061.537.117.814.164.455.077.934.133 1.401.167zm8.735.133l-.623.21c-.573.192-1.15.365-1.731.518a21.098 21.098 0 01-5.173.663c-.406 0-.78-.011-1.141-.034l-.497-.033v14.017l.427.038c.395.034.803.052 1.214.052a16.573 16.573 0 004.074-.527 17.107 17.107 0 003.184-1.144l.266-.128V3.742zM5.377 25.977a.912.912 0 00-.693-.28 1.034 1.034 0 00-.4.075.91.91 0 00-.512.518 1.023 1.023 0 00-.072.387v2.335c-.006.165.026.328.092.479.055.12.135.226.234.313a.815.815 0 00.321.166c.114.032.231.048.349.049a.972.972 0 00.892-.61.951.951 0 00.075-.372v-.261h-.61v.208a.528.528 0 01-.036.208.359.359 0 01-.089.131.365.365 0 01-.128.067.425.425 0 01-.128.022.314.314 0 01-.286-.125.548.548 0 01-.081-.313v-2.177a.738.738 0 01.075-.349.31.31 0 01.299-.141.33.33 0 01.272.131c.068.09.104.2.101.313v.202h.604v-.238a1.093 1.093 0 00-.279-.737zM9.002 25.95a1.051 1.051 0 00-1.38 0 .961.961 0 00-.237.327 1.099 1.099 0 00-.089.452v2.239a1.08 1.08 0 00.089.459c.055.12.136.227.237.313a.94.94 0 00.322.197 1.028 1.028 0 00.728 0c.121-.044.233-.111.33-.197a.948.948 0 00.23-.313 1.08 1.08 0 00.089-.459v-2.239a1.08 1.08 0 00-.089-.452 1.015 1.015 0 00-.23-.327zm-.284 3.019a.405.405 0 01-.121.324.445.445 0 01-.574 0 .397.397 0 01-.121-.324V26.73a.405.405 0 01.121-.324.445.445 0 01.574 0 .397.397 0 01.121.324v2.239zM13.764 29.969V25.73h-.587l-.771 2.244h-.011l-.777-2.244h-.581v4.239h.606V27.39h.011l.593 1.823h.302l.598-1.823h.011v2.579h.606zM17.205 26.027a.84.84 0 00-.343-.232 1.363 1.363 0 00-.439-.066h-.9v4.239h.604v-1.656h.311c.189.009.376-.031.545-.116a.882.882 0 00.332-.324 1.02 1.02 0 00.139-.369c.024-.16.035-.321.033-.482a2.421 2.421 0 00-.059-.606.898.898 0 00-.223-.39zm-.311 1.292a.547.547 0 01-.056.221.346.346 0 01-.156.149.619.619 0 01-.285.053h-.276v-1.441h.311a.578.578 0 01.272.053.349.349 0 01.142.157.62.62 0 01.053.236v.282c0 .099.006.2 0 .291h-.006zM20.066 25.73h-.495l-.934 4.239h.604l.177-.911h.823l.177.911h.604l-.957-4.239zm-.557 2.751l.297-1.537h.011l.296 1.537h-.604zM23.969 28.284h-.011l-.912-2.554h-.581v4.239h.604V27.42h.012l.923 2.549h.568V25.73h-.604v2.554zM27.66 25.73l-.486 1.685h-.012l-.486-1.685h-.64l.83 2.447v1.792h.604v-1.792l.83-2.447h-.64zM3.692 31.166h.291v.817h.198v-.817h.29v-.167h-.778v.167zM6.14 30.998l-.381.984h.21l.081-.224h.392l.084.224h.215l-.391-.984h-.21zm-.032.595l.134-.365.134.365h-.268zM8.559 31.62h.227v.127a.38.38 0 01-.233.083.244.244 0 01-.209-.093.411.411 0 01-.073-.257c0-.219.095-.329.283-.329a.206.206 0 01.222.157l.195-.038c-.042-.192-.181-.289-.417-.289a.495.495 0 00-.344.127.494.494 0 00-.141.379.532.532 0 00.126.369.477.477 0 00.374.144.59.59 0 00.417-.157v-.388h-.427v.166zM11.029 30.998h-.199v.984h.69v-.167h-.49v-.817zM13.118 30.998h-.199v.984h.199v-.984zM15.161 31.656l-.403-.657h-.193v.984h.185v-.643l.395.643h.198v-.984h-.182v.657zM17.007 31.549h.49v-.167h-.49v-.216h.528v-.167h-.727v.984h.747v-.167h-.548v-.266zM21.484 31.387h-.388v-.388h-.198v.984h.198v-.43h.388v.43h.198v-.984h-.198v.388zM23.342 31.549h.492v-.167h-.492v-.216h.529v-.167h-.727v.984h.746v-.167h-.548v-.266zM25.86 31.549c.171-.027.258-.117.258-.274a.236.236 0 00-.096-.219.553.553 0 00-.288-.058h-.417v.984h.198v-.412h.039a.261.261 0 01.123.022.21.21 0 01.07.072l.215.313h.237l-.12-.192a.685.685 0 00-.218-.236zm-.199-.136h-.146v-.247h.156a.526.526 0 01.201.023c.014.013.026.029.033.046a.133.133 0 01-.005.111.128.128 0 01-.037.043.547.547 0 01-.201.023zM27.76 31.549h.49v-.167h-.49v-.216h.529v-.167h-.729v.984h.747v-.167h-.548v-.266z"/></symbol>
<symbol id="icon-group-3" viewBox="0 0 32 32"><path  d="M5.267 30.294a.098.098 0 01.06.024l.155.148c-.12.12-.269.216-.436.281a1.701 1.701 0 01-.619.101 1.66 1.66 0 01-.582-.094 1.266 1.266 0 01-.438-.266 1.189 1.189 0 01-.283-.411 1.373 1.373 0 01-.099-.527 1.223 1.223 0 01.408-.94c.132-.116.291-.207.465-.268.191-.064.394-.096.599-.094.19-.004.379.025.556.086.154.058.295.138.417.238l-.13.158a.132.132 0 01-.033.029.093.093 0 01-.052.012.119.119 0 01-.056-.017l-.07-.042-.097-.054a1.136 1.136 0 00-.306-.094 1.366 1.366 0 00-.231-.017 1.225 1.225 0 00-.43.071 1 1 0 00-.337.199.918.918 0 00-.219.317 1.042 1.042 0 00-.079.418c-.002.145.025.288.079.425.047.116.12.223.215.315a.878.878 0 00.322.195c.127.046.262.068.399.067.079.001.158-.003.237-.013a.944.944 0 00.512-.217.12.12 0 01.074-.027zM9.745 29.549c.002.179-.033.356-.105.524-.063.152-.163.291-.292.407s-.286.207-.458.267c-.38.126-.799.126-1.179 0a1.36 1.36 0 01-.456-.268 1.192 1.192 0 01-.295-.411c-.14-.339-.14-.71 0-1.05.066-.153.166-.293.295-.413.13-.112.285-.2.456-.258.379-.128.8-.128 1.179 0 .172.061.328.152.458.268.128.117.227.255.293.406.072.169.107.347.105.527zm-.407 0a1.11 1.11 0 00-.074-.421.863.863 0 00-.535-.514 1.365 1.365 0 00-.857 0 .912.912 0 00-.328.199.836.836 0 00-.209.315 1.23 1.23 0 000 .842.86.86 0 00.537.512c.276.09.581.09.857 0a.922.922 0 00.328-.197.872.872 0 00.207-.315 1.11 1.11 0 00.074-.421zM12.801 29.991l.041.094c.015-.034.029-.064.045-.094.015-.032.032-.063.05-.093l.991-1.565c.019-.027.037-.044.056-.049a.246.246 0 01.081-.008h.293v2.545h-.347V28.95v-.079a.646.646 0 010-.088l-.997 1.587c-.013.024-.033.044-.058.058s-.055.021-.085.021h-.056c-.03 0-.06-.007-.085-.021s-.046-.034-.058-.058l-1.026-1.597v2.043h-.335v-2.54h.293a.272.272 0 01.081.008c.024.01.043.028.054.049l1.012 1.567c.02.029.037.059.05.091zM16.529 29.864v.953h-.388v-2.542h.865c.163-.003.326.016.483.056a.97.97 0 01.341.158.655.655 0 01.194.249.766.766 0 01.066.325.727.727 0 01-.072.325.698.698 0 01-.209.254.981.981 0 01-.343.168 1.63 1.63 0 01-.467.059l-.469-.007zm0-.272h.469a1.08 1.08 0 00.3-.039.645.645 0 00.217-.11.487.487 0 00.179-.382c.004-.071-.009-.141-.039-.207s-.076-.125-.136-.174a.834.834 0 00-.522-.136h-.469v1.048zM21.741 30.821h-.306a.139.139 0 01-.085-.024.157.157 0 01-.05-.059l-.264-.615h-1.324l-.273.615a.14.14 0 01-.049.057.148.148 0 01-.087.025h-.306l1.163-2.546h.403l1.179 2.546zm-1.92-.945h1.093l-.461-1.036a1.755 1.755 0 01-.087-.239l-.045.133c-.014.04-.029.078-.043.108l-.458 1.034zM23.416 28.288a.174.174 0 01.058.045l1.697 1.919v-.089-1.887h.347v2.545h-.194a.174.174 0 01-.141-.062l-1.695-1.917a.646.646 0 010 .088v1.891h-.347v-2.545h.206a.167.167 0 01.07.012zM28.375 29.809v1.011h-.388v-1.011l-1.072-1.533h.347a.133.133 0 01.083.022.216.216 0 01.052.057l.671.989c.027.042.05.081.07.118s.035.072.049.108l.05-.11a.888.888 0 01.066-.116l.661-.996a.284.284 0 01.05-.054.128.128 0 01.083-.025h.351l-1.074 1.54zM12.609 24.004c.169.019.339.034.512.047 2.616-1.017 4.829-2.681 6.363-4.785s2.319-4.553 2.259-7.043L18.86 9.718c.586 2.651.312 5.39-.792 7.913s-2.994 4.729-5.459 6.372z"/><path  d="M11.579 23.888l.078.013c2.634-1.637 4.642-3.923 5.765-6.562s1.308-5.51.533-8.242l-4.106-3.568c1.661 2.933 2.33 6.215 1.928 9.464s-1.857 6.334-4.196 8.893zM25.506 15.165c-.698 2.735-2.392 5.202-4.832 7.035a15.392 15.392 0 01-2.296 1.432c1.986-.507 3.812-1.404 5.337-2.621s2.707-2.723 3.456-4.4l-1.665-1.445z"/><path  d="M24.853 14.763l-2.371-2.06c-.045 2.349-.814 4.644-2.226 6.648s-3.416 3.642-5.803 4.745h.012c.532 0 1.064-.028 1.592-.083 2.231-.791 4.202-2.05 5.737-3.664s2.586-3.533 3.06-5.586zM11.923 4.026L9.094 1.565c-2.529.849-4.704 2.342-6.24 4.282S.492 10.086.484 12.442c.009 2.603 1.018 5.128 2.865 7.177s4.429 3.504 7.335 4.135c2.594-2.746 4.113-6.14 4.336-9.688s-.862-7.065-3.097-10.04zM31.388 14.384c-.01-3.088-1.427-6.047-3.94-8.23s-5.919-3.414-9.473-3.423a15.073 15.073 0 00-4.803.777l17.32 15.048c.593-1.33.897-2.744.896-4.171z"/></symbol>
<symbol id="icon-group-4" viewBox="0 0 65 32"><path  d="M10.016 9.986h-.002c-1.827 0-3.308 1.316-3.308 2.94v.002c0 1.624 1.481 2.94 3.308 2.94h.002c1.827 0 3.308-1.317 3.308-2.94v-.002c0-1.624-1.481-2.941-3.308-2.941zm24.418-.939c-.005-2.255-1.016-4.418-2.81-6.012S27.398.542 24.861.537c-2.539.004-4.972.902-6.767 2.497s-2.806 3.757-2.811 6.013v12.437s19.15-1.896 19.152-12.434v-.002zM0 25.565c.005 1.57.709 3.073 1.957 4.183s2.94 1.735 4.706 1.739c1.765-.005 3.457-.63 4.706-1.739s1.952-2.613 1.957-4.181v-8.654S.002 18.233.002 25.565zm6.662 1.55c-.345 0-.682-.091-.969-.261a1.617 1.617 0 01-.638-.686l-.004-.009a1.394 1.394 0 01-.097-.904l-.002.009a1.5 1.5 0 01.477-.794 1.81 1.81 0 01.882-.423l.011-.002a1.939 1.939 0 011.021.092l-.013-.004c.319.117.592.316.783.571s.294.555.294.861c.001.204-.043.407-.131.596a1.555 1.555 0 01-.376.503l-.002.001a1.77 1.77 0 01-.567.338 1.907 1.907 0 01-.668.119h-.001v-.006zm13.466-.854h-1.286v1.328h-.67v-3.251h2.117v.542h-1.447v.84h1.286v.54zm3.218-.223c0 .32-.056.6-.169.841s-.276.427-.488.558a1.32 1.32 0 01-.698.197h-.025.001c-.27 0-.51-.065-.722-.194a1.296 1.296 0 01-.487-.546l-.003-.008a1.882 1.882 0 01-.177-.804v-.028.001-.16c0-.32.058-.602.172-.844a1.285 1.285 0 011.212-.757c.271 0 .51.066.721.197.211.13.374.316.489.56.116.242.174.523.174.841v.145zm-.678-.148c0-.341-.061-.6-.183-.777a.596.596 0 00-.496-.266l-.028.001h.001l-.025-.001a.597.597 0 00-.494.262l-.001.002c-.122.174-.184.43-.185.768v.158c0 .331.061.589.183.772s.297.274.527.274l.026.001a.59.59 0 00.49-.261l.001-.002c.12-.177.181-.434.183-.773v-.158zm2.85.846l.001-.019a.34.34 0 00-.133-.27l-.001-.001c-.089-.069-.25-.14-.482-.214a3.473 3.473 0 01-.57-.232l.019.009c-.37-.2-.554-.469-.554-.806 0-.175.049-.332.147-.469a.975.975 0 01.427-.324c.186-.077.395-.116.625-.116.232 0 .439.042.621.127a.97.97 0 01.421.355.926.926 0 01.152.522h-.67a.434.434 0 00-.14-.346c-.094-.084-.226-.125-.395-.125-.164 0-.291.035-.382.105a.325.325 0 00-.136.265v.008c0 .106.053.194.158.266.107.071.264.138.471.2.381.114.658.257.833.427s.261.381.261.634c0 .281-.107.503-.32.663s-.498.239-.859.239c-.25 0-.478-.046-.683-.137a1.11 1.11 0 01-.469-.373l-.002-.003a.962.962 0 01-.16-.533v-.022.001h.671c0 .358.214.538.643.538a.634.634 0 00.373-.096.32.32 0 00.134-.259v-.013.001zm3.574-1.855h-.995v2.708h-.67v-2.708h-.981v-.542h2.647v.542zm2.339 1.299h-1.285v.871h1.509v.538h-2.178v-3.251h2.174v.542h-1.505v.775h1.286v.524zm1.819.219h-.533v1.19h-.67v-3.251h1.208c.384 0 .68.086.888.257s.312.413.312.725a.996.996 0 01-.145.556.977.977 0 01-.429.35l-.006.002.702 1.328v.03h-.718l-.61-1.189zm-.533-.542h.541c.168 0 .297-.042.39-.126a.46.46 0 00.139-.33l-.001-.026v.001c0-.154-.043-.274-.131-.362s-.219-.132-.4-.132h-.538v.975zm4.058.587v1.145h-.67v-3.251h1.268c.244 0 .459.045.643.134a.98.98 0 01.429.382c.099.164.149.35.149.56 0 .318-.11.57-.328.754-.218.183-.519.275-.904.275h-.587zm0-.542h.598c.178 0 .312-.042.404-.125a.454.454 0 00.141-.357l.001-.024a.534.534 0 00-.141-.363.527.527 0 00-.389-.152h-.614v1.021zm4.236.278h-1.285v.871h1.509v.538h-2.178v-3.251h2.174v.542h-1.505v.775h1.286v.524zm3.108-1.299h-.996v2.708h-.67v-2.708h-.982v-.542h2.648v.542zm2.339 1.299h-1.285v.871h1.509v.538h-2.179v-3.251h2.174v.542h-1.504v.775h1.285v.524zm1.819.219h-.533v1.19h-.67v-3.251h1.208c.384 0 .68.086.888.257s.312.413.312.725c0 .222-.049.408-.145.556a.982.982 0 01-.429.35l-.006.002.703 1.328v.03h-.718l-.61-1.189zm-.533-.542h.54c.168 0 .298-.042.39-.126a.46.46 0 00.139-.331l-.001-.025v.001a.484.484 0 00-.132-.362c-.086-.088-.219-.132-.399-.132h-.538v.975zm3.935.88l.001-.019a.34.34 0 00-.134-.271l-.001-.001c-.089-.069-.25-.14-.482-.214a3.473 3.473 0 01-.57-.232l.019.009c-.37-.2-.554-.469-.554-.806 0-.175.05-.332.147-.469a.975.975 0 01.427-.324c.186-.077.395-.116.625-.116.232 0 .439.042.621.127a.97.97 0 01.421.355.926.926 0 01.152.522h-.67a.434.434 0 00-.14-.346c-.094-.084-.226-.125-.395-.125-.164 0-.291.035-.382.105a.326.326 0 00-.137.265v.007c0 .106.053.194.159.266s.264.138.471.2c.381.114.658.257.833.427s.261.381.261.634c0 .281-.107.503-.32.663s-.499.239-.859.239c-.25 0-.478-.046-.683-.137a1.11 1.11 0 01-.469-.373l-.002-.003a.962.962 0 01-.16-.533v-.022.001h.671c0 .358.214.538.643.538a.634.634 0 00.373-.096.317.317 0 00.134-.26v-.013.001z"/></symbol>
<symbol id="icon-group-5" viewBox="0 0 32 32"><path  d="M2.416 23.738c.124.14.19.316.186.496.006.118-.016.235-.066.344s-.126.205-.222.283c-.24.166-.538.248-.839.229H0v-3.145h1.445c.285-.017.568.056.8.209.093.072.167.162.216.264s.071.213.064.324a.69.69 0 01-.168.481.796.796 0 01-.44.246.856.856 0 01.498.269zm-1.73-.474h.617c.14.009.28-.028.393-.104.046-.038.082-.086.105-.139s.032-.111.027-.168c.004-.057-.005-.114-.028-.167s-.058-.101-.103-.14a.635.635 0 00-.404-.106H.686v.825zm1.071 1.206c.05-.039.089-.089.114-.144s.036-.115.032-.175a.387.387 0 00-.15-.322.683.683 0 00-.419-.114H.686v.865h.656a.693.693 0 00.414-.109zM5.369 25.09l-.804-1.229h-.302v1.229h-.691v-3.145h1.309c.33-.021.656.075.911.267.183.171.293.396.311.634s-.058.475-.214.667a1.096 1.096 0 01-.624.32l.856 1.257h-.752zm-1.105-1.657h.565c.393 0 .589-.159.589-.476.004-.065-.007-.13-.032-.191s-.063-.116-.113-.163a.659.659 0 00-.445-.128h-.572l.007.957zM9.148 24.457H7.77l-.243.633h-.725l1.265-3.11h.784l1.26 3.11h-.725l-.238-.633zm-.185-.476l-.503-1.327-.503 1.327h1.007zM13.878 25.09h-.686l-1.539-2.139v2.139h-.685v-3.145h.685l1.539 2.151v-2.151h.686v3.145zM17.794 24.338a1.433 1.433 0 01-.621.555c-.299.138-.63.206-.965.198h-1.222v-3.145h1.222c.334-.008.665.058.965.194.263.121.479.312.621.548.141.256.215.538.215.825s-.074.569-.215.825zm-.785-.076c.196-.209.304-.475.304-.751s-.108-.542-.304-.75a1.264 1.264 0 00-.859-.267h-.476v2.036h.476c.314.018.622-.078.859-.267zM9.578 4.453s8.858 3.062 8.67 7.493v7.494s-8.851-3.063-8.666-7.494l-.003-7.493zM26.139 17.685a12.85 12.85 0 015.628-1.899V13.44c-2.327.821-4.302 2.311-5.628 4.245z"/><path  d="M25.134 18.392c1.369-2.524 3.743-4.472 6.633-5.443v-6.76S19.152 10.551 19.419 16.86v10.67s.562-.195 1.446-.561c0-.341 0-.685.04-1.031.261-2.929 1.782-5.644 4.228-7.546z"/><path  d="M23.934 22.356c.066-.74.214-1.472.441-2.185-1.523 1.643-2.446 3.682-2.638 5.83a9.502 9.502 0 00-.034.615c.716-.315 1.55-.708 2.426-1.171a10.093 10.093 0 01-.196-3.09zM24.436 22.394a9.664 9.664 0 00.156 2.798c3.446-1.888 7.319-4.806 7.17-8.332v-.307c-2.462.252-4.766 1.238-6.557 2.805a9.782 9.782 0 00-.768 3.036z"/></symbol>
<symbol id="icon-group-6" viewBox="0 0 67 32"><path  d="M33.73 15.223a2.084 2.084 0 01-.43-1.42v.006-2.051c0-.628.142-1.106.428-1.433.285-.327.775-.489 1.469-.488.652 0 1.116.139 1.389.418.299.355.445.789.411 1.226v.482h-1.166v-.489a2.465 2.465 0 00-.034-.477.464.464 0 00-.166-.283l-.001-.001a.672.672 0 00-.373-.112l-.052.002h.002a.712.712 0 00-.447.118l.003-.002a.553.553 0 00-.193.309l-.001.004a2.28 2.28 0 00-.047.467v.042-.002 2.489c-.019.24.033.48.149.698a.55.55 0 00.23.168l.004.001a.633.633 0 00.305.039h-.003a.63.63 0 00.414-.114l-.002.001a.503.503 0 00.174-.299v-.003c.027-.165.04-.332.036-.499v-.505h1.167v.461a1.866 1.866 0 01-.406 1.293l.003-.004c-.268.304-.725.457-1.397.457s-1.179-.163-1.467-.501zm4.859.022c-.295-.32-.442-.784-.442-1.4v-2.157c0-.61.147-1.07.442-1.383s.787-.469 1.479-.467c.686 0 1.176.156 1.472.467.294.313.445.774.445 1.383v2.156c0 .61-.149 1.077-.45 1.398s-.787.482-1.467.482-1.181-.163-1.479-.479zm2.022-.518c.106-.199.154-.419.14-.638v-2.642a1.18 1.18 0 00-.14-.632l.003.006a.558.558 0 00-.234-.17l-.004-.001a.622.622 0 00-.312-.037h.003a.643.643 0 00-.313.038l.004-.002a.569.569 0 00-.239.171l-.001.001c-.107.195-.154.41-.14.626V14.1c-.014.22.033.439.14.639a.732.732 0 00.246.158.832.832 0 00.605-.002l-.006.002a.723.723 0 00.246-.158v-.013zM43.388 9.9h1.256l.944 3.979.967-3.979h1.222l.124 5.744h-.904l-.097-3.992-.932 3.992h-.725l-.966-4.007-.09 4.007h-.913l.114-5.744zm5.922 0h1.957c1.127 0 1.691.543 1.691 1.631 0 1.041-.594 1.562-1.781 1.56h-.666v2.553h-1.208l.007-5.745zm1.672 2.455a.93.93 0 00.665-.182.928.928 0 00.174-.649l.001-.063c0-.163-.022-.321-.062-.471l.003.013a.43.43 0 00-.089-.158.502.502 0 00-.149-.114l-.003-.001a1.24 1.24 0 00-.476-.094l-.066.002h.003-.469v1.717h.469zM54.701 9.9h1.297l1.331 5.744h-1.127l-.263-1.324h-1.157l-.27 1.324h-1.143L54.7 9.9zm1.108 3.755l-.452-2.411-.452 2.411h.903zM58.404 9.9h.846l1.618 3.277V9.9h1.003v5.744h-.804l-1.629-3.421v3.421h-1.036l.002-5.744zm5.816 3.554l-1.346-3.545h1.134l.821 2.278.77-2.278h1.11l-1.329 3.546v2.19h-1.159v-2.191zm-28.624 4.702v.3h-.986v2.334h-.413v-2.334h-.991v-.3h2.39zm3.09 2.635h-.328a.141.141 0 01-.081-.025.137.137 0 01-.052-.06v-.001l-.285-.626h-1.368l-.285.626a.168.168 0 01-.044.071.144.144 0 01-.082.025h-.326l1.208-2.634h.42l1.223 2.624zm-2.001-.978h1.14l-.484-1.073a1.765 1.765 0 01-.086-.235l-.003-.014c-.017.05-.031.098-.046.14l-.044.11-.478 1.07zm4.083.719c.076.004.151.004.228 0a1.41 1.41 0 00.193-.031c.059-.012.117-.028.174-.048.053-.018.107-.042.161-.065v-.592h-.487a.095.095 0 01-.061-.022.06.06 0 01-.018-.021.048.048 0 01-.006-.024V19.524h.937v1.01a1.792 1.792 0 01-.496.211l-.013.003c-.1.026-.2.043-.302.055a3.774 3.774 0 01-.353.016h-.015c-.212 0-.416-.036-.606-.102l.013.004a1.499 1.499 0 01-.486-.277l.002.002a1.276 1.276 0 01-.308-.409l-.003-.008a1.3 1.3 0 01-.111-.529v-.019-.015c0-.193.04-.377.112-.543l-.003.009a1.21 1.21 0 01.312-.418c.138-.119.302-.211.484-.273.206-.068.427-.101.647-.098.112 0 .225.007.336.023a1.62 1.62 0 01.529.172c.074.041.144.087.211.137l-.116.163a.101.101 0 01-.039.035h-.001a.112.112 0 01-.055.014.156.156 0 01-.075-.021h.001a1.595 1.595 0 01-.126-.066l.007.004a1.098 1.098 0 00-.154-.069l-.008-.002a1.522 1.522 0 00-.213-.057l-.009-.001a1.749 1.749 0 00-.29-.023h-.017.001-.015c-.162 0-.317.027-.462.076l.01-.003a.917.917 0 00-.578.529l-.002.006a1.234 1.234 0 00.003.887l-.003-.008a.938.938 0 00.242.332c.099.09.219.161.352.208.154.046.316.063.479.052zm3.852-.041h1.319v.3h-1.722v-2.634h.413l-.009 2.334zm2.691.3h-.413v-2.634h.413v2.634zm1.537-2.622a.2.2 0 01.063.047l1.766 1.986-.002-.047.002-.049v.002-1.963h.36v2.646h-.222a.196.196 0 01-.077-.016h.001a.23.23 0 01-.065-.05l-1.764-1.984v2.048h-.346v-2.634h.215c.023 0 .047.004.068.012zm5.231-.013v.289h-1.464v.87h1.186v.279h-1.186v.9h1.464v.289H52.19v-2.628h1.889zM10.784 1.886L29.13 6.383v15.759l-18.346-4.495V1.885zM9.607.542v17.871l20.697 5.075V5.619L9.608.542z"/><path  d="M20.7 31.784L0 26.704V8.836l20.7 5.077v17.87z"/><path  d="M9.95 1.684l18.106 4.441-7.7 6.65-18.11-4.443 7.703-6.649zM9.607.543L0 8.836l20.7 5.078 9.604-8.295L9.607.543zm12.257 30.236l8.44-7.289-8.441-2.07v9.36z"/></symbol>





<symbol id="icon-vector-close" viewBox="0 0 18 18">
<path d="M15 4.10786L13.8921 3L9.5 7.39214L5.10786 3L4 4.10786L8.39214 8.5L4 12.8921L5.10786 14L9.5 9.60786L13.8921 14L15 12.8921L10.6079 8.5L15 4.10786Z"></path>
</symbol>
<symbol id="icon-person" viewBox="0 0 32 32">
<path  d="M16.010 16.010c2.947 0 5.337-2.389 5.337-5.337s-2.389-5.337-5.337-5.337v0c-2.947 0-5.337 2.389-5.337 5.337s2.389 5.337 5.337 5.337v0zM16.010 18.679c-3.563 0-10.674 1.788-10.674 5.337v1.334c0 0.733 0.599 1.334 1.334 1.334h18.679c0.733 0 1.334-0.601 1.334-1.334v-1.334c0-3.549-7.112-5.337-10.674-5.337z"></path>
</symbol>
<symbol id="icon-phone" viewBox="0 0 32 32">
<path d="M24.898 19.787l-3.27-0.374c-0.090-0.011-0.194-0.018-0.299-0.018-0.708 0-1.348 0.287-1.812 0.75l-2.37 2.37c-3.672-1.895-6.589-4.813-8.433-8.377l-0.051-0.108 2.384-2.378c0.464-0.464 0.751-1.104 0.751-1.812 0-0.106-0.006-0.21-0.019-0.312l0.001 0.012-0.374-3.245c-0.155-1.288-1.241-2.277-2.559-2.277-0.001 0-0.002 0-0.003 0h-2.227c-1.455 0-2.665 1.21-2.576 2.665 0.683 10.994 9.476 19.773 20.458 20.456 1.453 0.089 2.665-1.121 2.665-2.576v-2.227c0-0.004 0-0.008 0-0.012 0-1.309-0.985-2.387-2.255-2.534l-0.012-0.001z"></path>
</symbol>
<symbol id="icon-email" viewBox="0 0 32 32">
<path d="M26.684 5.337h-21.347c-1.468 0-2.654 1.201-2.654 2.668l-0.014 16.010c0 1.468 1.201 2.668 2.668 2.668h21.347c1.468 0 2.668-1.201 2.668-2.668v-16.010c0-1.468-1.201-2.668-2.668-2.668zM26.15 11.008l-9.432 5.895c-0.201 0.126-0.446 0.201-0.708 0.201s-0.507-0.075-0.714-0.204l0.006 0.003-9.432-5.895c-0.336-0.201-0.557-0.563-0.557-0.976 0-0.626 0.507-1.133 1.133-1.133 0.233 0 0.449 0.070 0.629 0.19l-0.004-0.003 8.939 5.589 8.939-5.591c0.176-0.118 0.392-0.188 0.625-0.188 0.626 0 1.133 0.507 1.133 1.133 0 0.413-0.221 0.775-0.552 0.973l-0.005 0.003z"></path>
</symbol>
<symbol id="icon-policy" viewBox="0 0 42 32">
<path d="M6.268 15.206l-0.221-0.211-0.221 0.208-3.088 2.927 0.243 0.234 11.418 10.89 0.221-0.211 24.278-23.16-0.243-0.231-3.046-2.905-0.221 0.211-20.989 20.005-8.132-7.757z"></path>
</symbol>
<symbol id="icon-send" viewBox="0 0 32 32">
<path d="M32.021 0l-32.021 18.012 10.233 3.789 15.784-14.796-12.005 16.197 0.009 0.003-0.012-0.003v8.819l5.738-6.695 7.271 2.692 5.002-28.018z"></path>
</symbol>
</svg>